/* XPM */
static char *dummy[]={
"129 129 3 1",
". c #000000",
"# c #000000",
"a c #ffffff",
".................................................................................................................................",
".................................................................................................................................",
".................................................................................................................................",
".................................................................................................................................",
".................................................................................................................................",
".................................................................................................................................",
".................................................................................................................................",
".................................................................................................................................",
".................................................................................................................................",
".................................................................................................................................",
"...............................................................##................................................................",
"..............................................................####...............................................................",
"..............................................................####...............................................................",
"..............................................................####...............................................................",
"..............................................................####...............................................................",
"..............................................................####...............................................................",
"........................................................################.........................................................",
".......................................................##################........................................................",
".......................................................##################........................................................",
"........................................................################.........................................................",
"..............................................................####...............................................................",
"..............................................................####...............................................................",
"..............................................................####...............................................................",
"..............................................................####...............................................................",
"..............................................................####...............................................................",
"..............................................................####...............................................................",
"..............................................................####...............................................................",
"..............................................................####...............................................................",
"..............................................................####...............................................................",
"..............................................................####...............................................................",
"............................................................########.............................................................",
"..........................................................############...........................................................",
".........................................................##############..........................................................",
"........................................................################.........................................................",
".......................................................######aaaaaa######........................................................",
"......................................................#####aaaaaaaaaa#####.......................................................",
"......................................................####aaaaaaaaaaaa####.......................................................",
".....................................................#####aaaaaaaaaaaa#####......................................................",
".....................................................####aaaaaaaaaaaaaa####......................................................",
".....................................................####aaaaaaaaaaaaaa####......................................................",
"....................................................#####aaaaaaaaaaaaaa#####.....................................................",
"....................................................####aaaaaaaaaaaaaaaa####.....................................................",
"...........................###########..............####aaaaaaaaaaaaaaaa####..............###########............................",
"........................##################..........####aaaaaaaaaaaaaaaa####..........##################.........................",
"......................######################........####aaaaaaaaaaaaaaaa####........######################.......................",
"....................##########################......####aaaaaaaaaaaaaaaa####......##########################.....................",
"..................##########aaaaaaaaa###########....####aaaaaaaaaaaaaaaa####....###########aaaaaaaaa##########...................",
".................########aaaaaaaaaaaaaaaa########...####aaaaaaaaaaaaaaaa####...########aaaaaaaaaaaaaaaa########..................",
"................#######aaaaaaaaaaaaaaaaaaaa########.####aaaaaaaaaaaaaaaa####.########aaaaaaaaaaaaaaaaaaaa#######.................",
"...............######aaaaaaaaaaaaaaaaaaaaaaaa############aaaaaaaaaaaaaa############aaaaaaaaaaaaaaaaaaaaaaaa######................",
"..............#####aaaaaaaaaaaaaaaaaaaaaaaaaaaa##########aaaaaaaaaaaaaa##########aaaaaaaaaaaaaaaaaaaaaaaaaaaa#####...............",
".............#####aaaaaaaaaaaaaaaaaaaaaaaaaaaaaa#########aaaaaaaaaaaaaa#########aaaaaaaaaaaaaaaaaaaaaaaaaaaaaa#####..............",
"............#####aaaaaaaaaaaaaaaaaaaaaaaaaaaaaaaaa#######aaaaaaaaaaaaaa#######aaaaaaaaaaaaaaaaaaaaaaaaaaaaaaaaa#####.............",
"............####aaaaaaaaaaaaaaaaaaaaaaaaaaaaaaaaaaa#######aaaaaaaaaaaa#######aaaaaaaaaaaaaaaaaaaaaaaaaaaaaaaaaaa####.............",
"...........#####aaaaaaaaaaaaaaaaaaaaaaaaaaaaaaaaaaaa######aaaaaaaaaaaa######aaaaaaaaaaaaaaaaaaaaaaaaaaaaaaaaaaaa#####............",
"...........####aaaaaaaaaaaaaaaaaaaaaaaaaaaaaaaaaaaaaa######aaaaaaaaaa######aaaaaaaaaaaaaaaaaaaaaaaaaaaaaaaaaaaaaa####............",
"..........#####aaaaaaaaaaaaaaaaaaaaaaaaaaaaaaaaaaaaaaa#####aaaaaaaaaa#####aaaaaaaaaaaaaaaaaaaaaaaaaaaaaaaaaaaaaaa#####...........",
"..........####aaaaaaaaaaaaaaaaaaaaaaaaaaaaaaaaaaaaaaaa######aaaaaaaa######aaaaaaaaaaaaaaaaaaaaaaaaaaaaaaaaaaaaaaaa####...........",
"..........####aaaaaaaaaaaaaaaaaaaaaaaaaaaaaaaaaaaaaaaaa#####aaaaaaaa#####aaaaaaaaaaaaaaaaaaaaaaaaaaaaaaaaaaaaaaaaa####...........",
".........#####aaaaaaaaaaaaaaaaaaaaaaaaaaaaaaaaaaaaaaaaaa#####aaaaaa#####aaaaaaaaaaaaaaaaaaaaaaaaaaaaaaaaaaaaaaaaaa#####..........",
".........####aaaaaaaaaaaaaaaaaaaaaaaaaaaaaaaaaaaaaaaaaaa#####aaaaaa#####aaaaaaaaaaaaaaaaaaaaaaaaaaaaaaaaaaaaaaaaaaa####..........",
".........####aaaaaaaaaaaaaaaaaaaaaaaaaaaaaaaaaaaaaaaaaaaa#####aaaa#####aaaaaaaaaaaaaaaaaaaaaaaaaaaaaaaaaaaaaaaaaaaa####..........",
".........####aaaaaaaaaaaaaaaaaaaaaaaaaaaaaaaaaaaaaaaaaaaaa####aaaa####aaaaaaaaaaaaaaaaaaaaaaaaaaaaaaaaaaaaaaaaaaaaa####..........",
".........####aaaaaaaaaaaaaaaaaaaaaaaaaaaaaaaaaaaaaaaaaaaaa#####aa#####aaaaaaaaaaaaaaaaaaaaaaaaaaaaaaaaaaaaaaaaaaaaa####..........",
".........####aaaaaaaaaaaaaaaaaaaaaaaaaaaaaaaaaaaaaaaaaaaaaa####aa####aaaaaaaaaaaaaaaaaaaaaaaaaaaaaaaaaaaaaaaaaaaaaa####..........",
".........####aaaaaaaaaaaaaaaaaaaaaaaaaaaaaaaaaaaaaaaaaaaaaa##########aaaaaaaaaaaaaaaaaaaaaaaaaaaaaaaaaaaaaaaaaaaaaa####..........",
".........#####aaaaaaaaaaaaaaaaaaaaaaaaaaaaaaaaaaaaaaaaaaaaa##########aaaaaaaaaaaaaaaaaaaaaaaaaaaaaaaaaaaaaaaaaaaaa#####..........",
"..........####aaaaaaaaaaaaaaaaaaaaaaaaaaaaaaaaaaaaaaaaaaaaaa########aaaaaaaaaaaaaaaaaaaaaaaaaaaaaaaaaaaaaaaaaaaaaa####...........",
"..........####aaaaaaaaaaaaaaaaaaaaaaaaaaaaaaaaaaaaaaaaaaaaaa########aaaaaaaaaaaaaaaaaaaaaaaaaaaaaaaaaaaaaaaaaaaaaa####...........",
"..........#####aaaaaaaaaaaaaaaaaaaaaaaaaaaaaaaaaaaaaaaaaaaaa########aaaaaaaaaaaaaaaaaaaaaaaaaaaaaaaaaaaaaaaaaaaaa#####...........",
"...........####aaaaaaaaaaaaaaaaaaaaaaaaaaaaaaaaaaaaaaaaaaaaaa######aaaaaaaaaaaaaaaaaaaaaaaaaaaaaaaaaaaaaaaaaaaaaa####............",
"...........#####aaaaaaaaaaaaaaaaaaaaaaaaaaaaaaaaaaaaaaaaaaaaa######aaaaaaaaaaaaaaaaaaaaaaaaaaaaaaaaaaaaaaaaaaaaa#####............",
"............####aaaaaaaaaaaaaaaaaaaaaaaaaaaaaaaaaaaaaaaaaaaaa######aaaaaaaaaaaaaaaaaaaaaaaaaaaaaaaaaaaaaaaaaaaaa####.............",
"............#####aaaaaaaaaaaaaaaaaaaaaaaaaaaaaaaaaaaaaaaaaaaa######aaaaaaaaaaaaaaaaaaaaaaaaaaaaaaaaaaaaaaaaaaaa#####.............",
".............#####aaaaaaaaaaaaaaaaaaaaaaaaaaaaaaaaaaaaaaaaaaaa####aaaaaaaaaaaaaaaaaaaaaaaaaaaaaaaaaaaaaaaaaaaa#####..............",
"..............####aaaaaaaaaaaaaaaaaaaaaaaaaaaaaaaaaaaaaaaaaaaa####aaaaaaaaaaaaaaaaaaaaaaaaaaaaaaaaaaaaaaaaaaaa####...............",
"..............#####aaaaaaaaaaaaaaaaaaaaaaaaaaaaaaaaaaaaaaaaaaa####aaaaaaaaaaaaaaaaaaaaaaaaaaaaaaaaaaaaaaaaaaa#####...............",
"...............#####aaaaaaaaaaaaaaaaaaaaaaaaaaaaaaaaaaaaaaaaaa####aaaaaaaaaaaaaaaaaaaaaaaaaaaaaaaaaaaaaaaaaa#####................",
"................#####aaaaaaaaaaaaaaaaaaaaaaaaaaaaaaaaaaaaaaaaa####aaaaaaaaaaaaaaaaaaaaaaaaaaaaaaaaaaaaaaaaa#####.................",
".................#####aaaaaaaaaaaaaaaaaaaaaaaaaaaaaaaaaaaaaaaa####aaaaaaaaaaaaaaaaaaaaaaaaaaaaaaaaaaaaaaaa#####..................",
"..................#####aaaaaaaaaaaaaaaaaaaaaaaaaaaaaa######################aaaaaaaaaaaaaaaaaaaaaaaaaaaaaa#####...................",
"...................#####aaaaaaaaaaaaaaaaaaaaa######################################aaaaaaaaaaaaaaaaaaaaa#####....................",
"....................#####aaaaaaaaaaaaaa##################################################aaaaaaaaaaaaa######.....................",
".....................######aaaaaaaa##########################################################aaaaaaaa######......................",
"......................######aaa#######################aaaaaaaaaaaaaaaaaaaa#######################aaa######.......................",
".......................#######################aaaaaaaaaaaaaaaaaaaaaaaaaaaaaaaaaaaa#######################........................",
"........................################aaaaaaaaaaaaaaaaaaaaaaaaaaaaaaaaaaaaaaaaaaaaaaaa###############..........................",
"..........................##########aaaaaaaaaaaaaaaaaaaaaaaaaaaaaaaaaaaaaaaaaaaaaaaaaaaaaaaa##########...........................",
"...........................#####aaaaaaaaaaaaaaaaaaaaaaaaaaaaaaaaaaaaaaaaaaaaaaaaaaaaaaaaaaaaaaaa#####............................",
"...........................####aaaaaaaaaaaaaaaaaaaaaaaaaaaaaaaaaaaaaaaaaaaaaaaaaaaaaaaaaaaaaaaaaa####............................",
"...........................####aaaaaaaaaaaaaaaaaaaaaaaaaaaaaaaaaaaaaaaaaaaaaaaaaaaaaaaaaaaaaaaaaa####............................",
"...........................####aaaaaaaaaaaaaaaaaaaaaaaaaaaaaaaaaaaaaaaaaaaaaaaaaaaaaaaaaaaaaaaaaa####............................",
"...........................####aaaaaaaaaaaaaaaaaaaaaaaaaaaaaaaaaaaaaaaaaaaaaaaaaaaaaaaaaaaaaaaaaa####............................",
"...........................####aaaaaaaaaaaaaaaaaaaaaa######################aaaaaaaaaaaaaaaaaaaaaa####............................",
"...........................####aaaaaaaaaaaaaaa####################################aaaaaaaaaaaaaaa####............................",
"...........................####aaaaaaaaaa##############################################aaaaaaaaa#####............................",
"...........................####aaaaaa######################################################aaaaa####.............................",
"...........................####aa#####################aaaaaaaaaaaaaaaaaaaa#####################a####.............................",
"...........................####################aaaaaaaaaaaaaaaaaaaaaaaaaaaaaaaaaa###################.............................",
"...........................###############aaaaaaaaaaaaaaaaaaaaaaaaaaaaaaaaaaaaaaaaaaaa##############.............................",
"...........................###########aaaaaaaaaaaaaaaaaaaaaaaaaaaaaaaaaaaaaaaaaaaaaaaaaaaa###########............................",
"...........................#######aaaaaaaaaaaaaaaaaaaaaaaaaaaaaaaaaaaaaaaaaaaaaaaaaaaaaaaaaaaa#######............................",
"...........................####aaaaaaaaaaaaaaaaaaaaaaa####################aaaaaaaaaaaaaaaaaaaaaa####.............................",
"...........................####aaaaaaaaaaaaaaaa##################################aaaaaaaaaaaaaaa####.............................",
"...........................####aaaaaaaaaaa############################################aaaaaaaaaa####.............................",
"...........................####aaaaaaaa##################################################aaaaaaa####.............................",
"...........................####aaaa####################aaaaaaaaaaaaaaaaaa####################aaa####.............................",
"...........................####a################aaaaaaaaaaaaaaaaaaaaaaaaaaaaaaaa####################.............................",
"...........................################aaaaaaaaaaaaaaaaaaaaaaaaaaaaaaaaaaaaaaaaaa###############.............................",
"...........................#############aaaaaaaaaaaaaaaaaaaaaaaaaaaaaaaaaaaaaaaaaaaaaaaa############.............................",
"............................########aaaaaaaaaaaaaaaaaaaaaaaaaaaaaaaaaaaaaaaaaaaaaaaaaaaaaaaa########.............................",
"............................########aaaaaaaaaaaaaaaaaaaaaaaaaaaaaaaaaaaaaaaaaaaaaaaaaaaaaaa#########.............................",
"............................###########aaaaaaaaaaaaaaaaaaaaaaaaaaaaaaaaaaaaaaaaaaaaaaaaa###########..............................",
"..............................#############aaaaaaaaaaaaaaaaaaaaaaaaaaaaaaaaaaaaaaaaa##############...............................",
"................................################aaaaaaaaaaaaaaaaaaaaaaaaaaaaaaaa###############..................................",
"...................................####################aaaaaaaaaaaaaaaaaa###################.....................................",
"......................................###################################################........................................",
"..........................................###########################################............................................",
"...............................................##################################................................................",
"......................................................####################.......................................................",
".................................................................................................................................",
".................................................................................................................................",
".................................................................................................................................",
".................................................................................................................................",
".................................................................................................................................",
".................................................................................................................................",
".................................................................................................................................",
".................................................................................................................................",
"................................................................................................................................."};
