/* XPM */
static char *dummy[]={
"129 129 3 1",
". c #000000",
"# c #000000",
"a c #ffffff",
".................................................................................................................................",
".................................................................................................................................",
".................................................................................................................................",
".................................................................................................................................",
".................................................................................................................................",
".................................................................................................................................",
".................................................................................................................................",
".................................................................................................................................",
".................................................................................................................................",
".................................................................................................................................",
".................................................................................................................................",
".................................................................................................................................",
"...................................#......................###....................................................................",
"..................................####...................#####...................................................................",
"..................................#####..................#####...................................................................",
"..................................######................#######..................................................................",
"..................................########.............#########.................................................................",
"..................................#########............#########.................................................................",
"..................................###########.........###########................................................................",
"..................................############.......############................................................................",
"..................................#############......#############...............................................................",
"..................................##############....##############...............................................................",
"..................................###############...##############...............................................................",
"..................................###############..##################............................................................",
"..................................#########################################......................................................",
"...................................############################################..................................................",
"...................................##############################################................................................",
"...................................################################aa##############..............................................",
"...................................############aaaaaa############aaaaaaaaa###########............................................",
"..................................###########aaaaaaaaa############aaaaaaaaaaa##########..........................................",
".................................#########aaaaaaaaaaa##############aaaaaaaaaaaa#########.........................................",
"................................#########aaaaaaaaaaa################aaaaaaaaaaaaa#########.......................................",
"................................#########aaaaaaa#########################aaaaaaaaaa########......................................",
"...............................##########aaaaa##############################aaaaaaaa########.....................................",
"..............................################################################aaaaaaaa#######....................................",
".............................##################################################aaaaaaaa#######...................................",
".............................####################################################aaaaaaa#######..................................",
"............................######################################################aaaaaaa#######.................................",
"............................#############aaaaa######################################aaaaaa#######................................",
"...........................############aaaaaaa#######################################aaaaaa#######...............................",
"...........................###########aaaaa###########################################aaaaaa######...............................",
"...........................##########aaaaaa############################################aaaaaa######..............................",
"...........................#########aaaaaaa#############################################aaaaaa######.............................",
"..........................#########aaaaaaaa#############################################aaaaaaa######............................",
"..........................#########aaaaaaa###############################################aaaaaaa#####............................",
"..........................########aaaaaaa#################################################aaaaaa######...........................",
"..........................########aaaaaa##################################################aaaaaaa######..........................",
"..........................########aa#######################################################aaaaaaa#####..........................",
"..........................########aa########################################################aaaaaa######.........................",
".........................#########aa########################################################aaaaaaa#####.........................",
".........................####################################################################aaaaaaa#####........................",
".........................####################################################################aaaaaaa#####........................",
"........................######################################################################aaaaaaa#####.......................",
"........................######################################################################aaaaaaa#####.......................",
".......................########################################################################aaaaaaa#####......................",
".......................##############################################a#########################aaaaaaa#####......................",
"......................##############################################aaa#########################aaaaaaa####......................",
".....................###############################################aaa#########################aaaaaaa#####.....................",
".....................###############################################aa##########################aaaaaaa#####.....................",
"....................###############################################aaa###########################aaaaaaa#####....................",
"...................################################################aaa###########################aaaaaaa#####....................",
"...................################################################aa############################aaaaaaaa####....................",
"..................################################################aaa#############################aaaaaaa#####...................",
".................##################################################a##############################aaaaaaa#####...................",
".................#################################################################################aaaaaaaa####...................",
"................###################################################################################aaaaaaa#####..................",
"...............####################################################################################aaaaaaa#####..................",
"...............##################################################.#################################aaaaaaaa####..................",
"..............##################################################..##################################aaaaaaa####..................",
"..............#################################################...##################################aaaaaaa#####.................",
".............################################################.....##################################aaaaaaaa####.................",
".............##############################################.......##################################aaaaaaaa####.................",
"............#############################################.........###################################aaaaaaa####.................",
"............########aa#################################..........####################################aaaaaaa#####................",
"............#######aaaa##############################............####################################aaaaaaaa####................",
"............######aaaaaa###########################..............####################################aaaaaaaa####................",
"...........#######aaaaaa##########################..............######################################aaaaaaa####................",
"...........#######aaaaaa########################................######################################aaaaaaa####................",
"...........#######aaaaa########################.................######################################aaaaaaa#####...............",
"...........#######aaaaa######################..................#######################################aaaaaaaa####...............",
"...........########aaa######################...................#######################################aaaaaaaa####...............",
"...........###################a############...................#########################################aaaaaaa####...............",
"...........##################aa###########...................##########################################aaaaaaa####...............",
"...........#################aaa##########....................##########################################aaaaaaa#####..............",
"...........#################aaa#########....................###########################################aaaaaaaa####..............",
"............###############aaa#########....................############################################aaaaaaaa####..............",
"............###############aaa#########....................############################################aaaaaaaa####..............",
".............#############aaa#########....................#############################################aaaaaaaa####..............",
"..............#############a#########....................##############################################aaaaaaaa####..............",
"...............#####################....................################################################aaaaaaa####..............",
".................###################...................#################################################aaaaaaa####..............",
"...................################...................##################################################aaaaaaa#####.............",
"..........................########...................###################################################aaaaaaaa####.............",
"...........................######....................###################################################aaaaaaaa####.............",
"............................####....................####################################################aaaaaaaa####.............",
"...................................................#####################################################aaaaaaaa####.............",
"..................................................######################################################aaaaaaaa####.............",
".................................................#######################################################aaaaaaaa####.............",
"................................................########################################################aaaaaaaa####.............",
"...............................................#########################################################aaaaaaaa####.............",
"...............................................##########################################################aaaaaaa####.............",
"..............................................###########################################################aaaaaaa####.............",
".............................................############################################################aaaaaaa#####............",
".............................................############################################################aaaaaaa#####............",
"............................................#############################################################aaaaaaa#####............",
"...........................................##############################################################aaaaaaaa####............",
"...........................................##############################################################aaaaaaaa####............",
"..........................................###############################################################aaaaaaaa####............",
"..........................................###############################################################aaaaaaaa####............",
".........................................################################################################aaaaaaaa####............",
".........................................################################################################aaaaaaaa####............",
".........................................################################################################aaaaaaaa####............",
".........................................################################################################aaaaaaaa####............",
"........................................##################################################################aaaaaaa####............",
"........................................###################################################################aaaaaa####............",
"........................................####################################################################aaaa#####............",
"........................................#############################################################################............",
"........................................#############################################################################............",
"........................................#############################################################################............",
".........................................###########################################################################.............",
".................................................................................................................................",
".................................................................................................................................",
".................................................................................................................................",
".................................................................................................................................",
".................................................................................................................................",
".................................................................................................................................",
".................................................................................................................................",
".................................................................................................................................",
"................................................................................................................................."};
