/* XPM */
static char *dummy[]={
"129 129 2 1",
". c #000000",
"# c #000000",
".................................................................................................................................",
".................................................................................................................................",
".................................................................................................................................",
".................................................................................................................................",
".................................................................................................................................",
".................................................................................................................................",
".................................................................................................................................",
".................................................................................................................................",
".................................................................................................................................",
".................................................................................................................................",
".................................................................................................................................",
".................................................................................................................................",
".................................................................................................................................",
".................................................................................................................................",
".................................................................................................................................",
".................................................................................................................................",
".................................................................................................................................",
".................................................................................................................................",
".................................................................................................................................",
".................................................................................................................................",
"...........................................................##########............................................................",
".........................................................##############..........................................................",
".......................................................##################........................................................",
"......................................................####################.......................................................",
".....................................................######################......................................................",
"....................................................########################.....................................................",
"...................................................##########################....................................................",
"...................................................##########################....................................................",
"...................................................##########################....................................................",
"..................................................############################...................................................",
"..................................................############################...................................................",
"..................................................############################...................................................",
"..................................................############################...................................................",
"..................................................############################...................................................",
"..................................................############################...................................................",
"..................................................############################...................................................",
"...................................................##########################....................................................",
"...................................................##########################....................................................",
"...................................................##########################....................................................",
"....................................................########################.....................................................",
".....................................................######################......................................................",
"....................................................########################.....................................................",
"..................................................############################...................................................",
"................................................################################.................................................",
"...............................................##################################................................................",
"..............................................####################################...............................................",
".............................................######################################..............................................",
"............................................########################################.............................................",
"............................................########################################.............................................",
"...........................................##########################################............................................",
"..........................................############################################...........................................",
"..........................................############################################...........................................",
"..........................................############################################...........................................",
"..........................................############################################...........................................",
".........................................##############################################..........................................",
".........................................##############################################..........................................",
".........................................##############################################..........................................",
".........................................##############################################..........................................",
".........................................##############################################..........................................",
".........................................##############################################..........................................",
".........................................##############################################..........................................",
".........................................##############################################..........................................",
".........................................##############################################..........................................",
".........................................##############################################..........................................",
"..........................................############################################...........................................",
"..........................................############################################...........................................",
"..........................................############################################...........................................",
"...........................................###########################################...........................................",
"...........................................##########################################............................................",
"............................................########################################.............................................",
"............................................########################################.............................................",
".............................................######################################..............................................",
"..............................................####################################...............................................",
"...............................................##################################................................................",
"................................................################################.................................................",
"..............................................####################################...............................................",
"............................................########################################.............................................",
"...........................................##########################################............................................",
".........................................##############################################..........................................",
"........................................################################################.........................................",
".......................................##################################################........................................",
"......................................####################################################.......................................",
".....................................######################################################......................................",
"....................................########################################################.....................................",
"...................................##########################################################....................................",
"..................................############################################################...................................",
"..................................############################################################...................................",
".................................##############################################################..................................",
"................................################################################################.................................",
"................................################################################################.................................",
"...............................##################################################################................................",
"..............................####################################################################...............................",
"..............................####################################################################...............................",
".............................######################################################################..............................",
".............................######################################################################..............................",
".............................######################################################################..............................",
"............................########################################################################.............................",
"............................########################################################################.............................",
"............................########################################################################.............................",
"...........................##########################################################################............................",
"...........................##########################################################################............................",
"...........................##########################################################################............................",
"..........................############################################################################...........................",
"..........................############################################################################...........................",
"..........................############################################################################...........................",
"..........................############################################################################...........................",
"..........................############################################################################...........................",
"..........................############################################################################...........................",
".........................##############################################################################..........................",
".........................##############################################################################..........................",
".........................##############################################################################..........................",
".........................##############################################################################..........................",
".........................##############################################################################..........................",
".........................##############################################################################..........................",
".........................##############################################################################..........................",
".........................##############################################################################..........................",
".........................##############################################################################..........................",
".........................##############################################################################..........................",
"..........................############################################################################...........................",
".................................................................................................................................",
".................................................................................................................................",
".................................................................................................................................",
".................................................................................................................................",
".................................................................................................................................",
".................................................................................................................................",
".................................................................................................................................",
".................................................................................................................................",
".................................................................................................................................",
"................................................................................................................................."};
