/* XPM */
static char *dummy[]={
"129 129 3 1",
". c #000000",
"# c #000000",
"a c #ffffff",
".................................................................................................................................",
".................................................................................................................................",
".................................................................................................................................",
".................................................................................................................................",
".................................................................................................................................",
".................................................................................................................................",
".................................................................................................................................",
".................................................................................................................................",
"..............................................................####...............................................................",
"............................................................########.............................................................",
"...........................................................##########............................................................",
"..........................................................############...........................................................",
".................................#####...................##############...................#####..................................",
"................................########.................##############.................########.................................",
"...............................##########...............################...............##########................................",
"..............................############..............################..............############...............................",
".............................##############.............################.............##############..............................",
".............................##############.............################.............##############..............................",
"............................################............################............################.............................",
"............................################.............##############.............################.............................",
"............................################.............##############.............################.............................",
"............................################..............############..............################.............................",
"........#####...............################...............##########...............################...............#####.........",
".......########..............##############.................########.................##############..............########........",
"......##########.............##############..................######..................##############.............##########.......",
".....############.............############...................######...................############.............############......",
"....##############.............##########....................######....................##########.............##############.....",
"....##############..............########....................########....................########..............##############.....",
"...################................#####....................########....................#####................################....",
"...################................######...................########...................######................################....",
"...################................######...................########...................######................################....",
"...################................######...................########...................######................################....",
"...################................#######.................##########.................#######................################....",
"....##############................########.................##########.................########................##############.....",
"....##############................########.................##########.................########................##############.....",
".....############.................#########................##########................#########.................############......",
"......##########..................#########................##########................#########..................##########.......",
".......##########.................#########...............############...............#########.................##########........",
"..........#######.................##########..............############..............##########.................#######...........",
"...........#######................##########..............############..............##########................#######............",
"............######................##########..............############..............##########................######.............",
"............#######...............###########............##############............###########...............#######.............",
"............#######...............###########............##############............###########...............#######.............",
"............########..............###########............##############............###########..............########.............",
"............#########.............############...........##############...........############.............#########.............",
"............#########.............############...........##############...........############.............#########.............",
".............#########............############..........################..........############............#########..............",
".............#########............#############.........################.........#############............#########..............",
".............##########...........#############.........################.........#############...........##########..............",
".............##########...........#############.........################.........#############...........##########..............",
".............###########..........##############........################........##############..........###########..............",
".............############.........##############.......##################.......##############.........############..............",
"..............###########.........##############.......##################.......##############.........###########...............",
"..............############........###############......##################......###############........############...............",
"..............############........###############......##################......###############........############...............",
"..............#############.......###############.....####################.....###############.......#############...............",
"..............#############.......################....####################....################.......#############...............",
"..............##############.....#################....####################....#################.....##############...............",
"...............##############....#################....####################....#################....##############................",
"...............##############....##################...####################...##################....##############................",
"...............###############...##################..######################..##################...###############................",
"...............###############...##################..######################..##################...###############................",
"...............################..###################.######################.###################..################................",
"...............################..###################.######################.###################..################................",
"................################.##############################################################.################.................",
"................################################################################################################.................",
"................################################################################################################.................",
"................################################################################################################.................",
"................################################################################################################.................",
"................################################################################################################.................",
".................##############################################################################################..................",
".................##############################################################################################..................",
".................##############################################################################################..................",
".................##############################################################################################..................",
".................##############################################################################################..................",
"..................############################################################################################...................",
"..................############################################################################################...................",
"..................############################################################################################...................",
"...................##########################################################################################....................",
"...................##########################################################################################....................",
"....................########################################################################################.....................",
".....................######################################################################################......................",
"......................####################################################################################.......................",
"......................##########################aaaaaaaaaaaaaaaaaaaaaaaaaaaaaaaa##########################.......................",
".......................#################aaaaaaaaaaaaaaaaaaaaaaaaaaaaaaaaaaaaaaaaaaaaaaaa#################........................",
"........................#########aaaaaaaaaaaaaaaaaaaaaaaaaaaaaaaaaaaaaaaaaaaaaaaaaaaaaaaaaaaaaa#########.........................",
".........................#######aaaaaaaaaaaaaaaaaaaaaaaaaaaaaaaaaaaaaaaaaaaaaaaaaaaaaaaaaaaaaaaa#######..........................",
"..........................#####aaaaaaaaaaaaaaaaaaaaaaaa##################aaaaaaaaaaaaaaaaaaaaaaaa#####...........................",
"..........................#####aaaaaaaaaaaaa########################################aaaaaaaaaaaaa#####...........................",
"...........................#####aaaaa######################################################aaaaa#####............................",
"...........................##########################################################################............................",
"...........................##########################################################################............................",
"...........................##########################################################################............................",
"............................########################################################################.............................",
"............................########################################################################.............................",
"............................####################aaaaaaaaaaaaaaaaaaaaaaaaaaaaaaaa####################.............................",
"............................############aaaaaaaaaaaaaaaaaaaaaaaaaaaaaaaaaaaaaaaaaaaaaaaa############.............................",
"............................#######aaaaaaaaaaaaaaaaaaaaaaaaaaaaaaaaaaaaaaaaaaaaaaaaaaaaaaaaaa#######.............................",
".............................#####aaaaaaaaaaaaaaaaaaaaaaaaaaaaaaaaaaaaaaaaaaaaaaaaaaaaaaaaaaaa#####..............................",
".............................####aaaaaaaaaaaaaaaaaaaaaa##################aaaaaaaaaaaaaaaaaaaaaa####..............................",
".............................####aaaaaaaaaaa########################################aaaaaaaaaaa####..............................",
"............................######aaa######################################################aaa######.............................",
"............................########################################################################.............................",
"...........................##########################################################################............................",
"...........................##########################################################################............................",
"..........................############################################################################...........................",
".........................####aa########################################################################..........................",
".........................###aaaa#######################################################################..........................",
"........................####aaaa########################################################################.........................",
"........................#####aa#########################################################################.........................",
".......................##################################################################################........................",
".......................##################################################################################........................",
".......................##################################################################################........................",
".......................##################################################################################........................",
"........................################################################################################.........................",
".........................##############################################################################..........................",
"..........................############################################################################...........................",
"............................########################################################################.............................",
"...................................##########################################################....................................",
"..........................................############################################...........................................",
"...................................................##########################....................................................",
".................................................................................................................................",
".................................................................................................................................",
".................................................................................................................................",
".................................................................................................................................",
".................................................................................................................................",
".................................................................................................................................",
".................................................................................................................................",
"................................................................................................................................."};
